<svg width="15" height="15" viewBox="0 0 15 15" fill="none" xmlns="http://www.w3.org/2000/svg">
<g clip-path="url(#clip0_1_31792)">
<path d="M13.9015 7.11551C13.9015 6.21636 12.7754 5.36421 11.0491 4.83578C11.4475 3.07616 11.2704 1.67622 10.4902 1.22801C10.3103 1.12288 10.1001 1.07308 9.87043 1.07308V1.69005C9.99769 1.69005 10.1001 1.71495 10.1858 1.76198C10.5621 1.97779 10.7253 2.79949 10.5981 3.85637C10.5677 4.11644 10.5179 4.39034 10.457 4.66978C9.91472 4.53696 9.32265 4.43461 8.70013 4.36821C8.32661 3.85637 7.93931 3.39157 7.54921 2.98486C8.45112 2.14655 9.29775 1.68728 9.87323 1.68728V1.07031C9.11237 1.07031 8.11638 1.61258 7.10931 2.55326C6.10219 1.61812 5.1062 1.08138 4.34536 1.08138V1.69835C4.91806 1.69835 5.76745 2.15486 6.6694 2.98763C6.28206 3.39433 5.89471 3.85637 5.52676 4.36821C4.90147 4.43461 4.30939 4.53696 3.76712 4.67254C3.70349 4.39587 3.65646 4.12751 3.62325 3.8702C3.49322 2.81333 3.65369 1.99162 4.02719 1.77305C4.11019 1.72325 4.2181 1.70112 4.34536 1.70112V1.08415C4.11296 1.08415 3.90269 1.13394 3.72009 1.23908C2.94265 1.68728 2.76835 3.08446 3.16952 4.83853C1.44864 5.36977 0.328125 6.21912 0.328125 7.11551C0.328125 8.01471 1.45417 8.86685 3.18058 9.39529C2.78218 11.1549 2.95925 12.5548 3.73946 13.0031C3.91929 13.1082 4.12956 13.158 4.36196 13.158C5.12278 13.158 6.11882 12.6157 7.12589 11.675C8.13296 12.6102 9.12896 13.1469 9.88982 13.1469C10.1222 13.1469 10.3325 13.0971 10.5151 12.992C11.2925 12.5438 11.4668 11.1466 11.0656 9.39253C12.781 8.8641 13.9015 8.01195 13.9015 7.11551ZM10.2993 5.27017C10.1969 5.62705 10.0696 5.99501 9.92579 6.36301C9.81236 6.14166 9.69337 5.92031 9.56335 5.699C9.43609 5.47765 9.30051 5.26185 9.16493 5.05157C9.55779 5.10969 9.93686 5.18163 10.2993 5.27017ZM9.03216 8.21667C8.81632 8.59019 8.59501 8.94431 8.36539 9.27354C7.95314 9.30951 7.53534 9.3289 7.11482 9.3289C6.69706 9.3289 6.27926 9.30952 5.86981 9.2763C5.64019 8.94707 5.41608 8.5957 5.20029 8.22499C4.99001 7.86254 4.79911 7.49459 4.6248 7.12383C4.79631 6.75311 4.99001 6.38235 5.19748 6.01991C5.41332 5.64644 5.63463 5.29227 5.86425 4.96304C6.2765 4.92707 6.6943 4.90772 7.11482 4.90772C7.53258 4.90772 7.95034 4.92707 8.35983 4.96028C8.58945 5.28951 8.81356 5.64088 9.02935 6.01164C9.23963 6.37404 9.43053 6.74204 9.60484 7.11275C9.43053 7.48351 9.23963 7.85423 9.03216 8.21667ZM9.92579 7.85698C10.0752 8.22774 10.2025 8.59846 10.3076 8.95814C9.94514 9.04668 9.56335 9.12138 9.16769 9.1795C9.30327 8.96646 9.43884 8.74786 9.5661 8.5238C9.69337 8.30245 9.81236 8.07834 9.92579 7.85698ZM7.12033 10.809C6.86305 10.5435 6.60573 10.2474 6.3512 9.92373C6.60021 9.9348 6.85474 9.94307 7.11206 9.94307C7.3721 9.94307 7.62943 9.93756 7.88119 9.92373C7.63218 10.2474 7.3749 10.5435 7.12033 10.809ZM5.06195 9.1795C4.66905 9.12138 4.29003 9.04943 3.92759 8.9609C4.02996 8.60402 4.15723 8.23606 4.3011 7.86806C4.41453 8.08941 4.53352 8.31076 4.66353 8.53207C4.79355 8.75342 4.92637 8.96922 5.06195 9.1795ZM7.10651 3.422C7.36383 3.6876 7.62111 3.98364 7.87568 4.30734C7.62667 4.29627 7.3721 4.28797 7.11482 4.28797C6.85474 4.28797 6.59746 4.29351 6.34569 4.30734C6.5947 3.98364 6.85198 3.6876 7.10651 3.422ZM5.05915 5.05157C4.92362 5.26461 4.78804 5.4832 4.66078 5.70727C4.53352 5.92862 4.41453 6.14997 4.3011 6.37128C4.15169 6.00057 4.02442 5.62981 3.91929 5.27017C4.28173 5.18439 4.66353 5.10969 5.05915 5.05157ZM2.55531 8.51548C1.5759 8.09772 0.942332 7.5499 0.942332 7.11551C0.942332 6.68117 1.5759 6.13059 2.55531 5.71558C2.79325 5.61322 3.05332 5.52193 3.32168 5.43616C3.47939 5.97842 3.68689 6.54283 3.94419 7.12107C3.68966 7.69655 3.48492 8.25816 3.32999 8.79767C3.05608 8.71189 2.79601 8.61784 2.55531 8.51548ZM4.04379 12.4691C3.66752 12.2533 3.50429 11.4316 3.63156 10.3747C3.66199 10.1146 3.71179 9.84071 3.77266 9.56128C4.31493 9.6941 4.90699 9.79646 5.52951 9.86285C5.90303 10.3747 6.29033 10.8395 6.68043 11.2462C5.77852 12.0845 4.93189 12.5438 4.35643 12.5438C4.23193 12.541 4.12679 12.5161 4.04379 12.4691ZM10.6064 10.3609C10.7364 11.4177 10.5759 12.2394 10.2025 12.458C10.1194 12.5078 10.0115 12.5299 9.88426 12.5299C9.31158 12.5299 8.46219 12.0734 7.56024 11.2407C7.94758 10.8339 8.33493 10.3719 8.70288 9.8601C9.32817 9.79371 9.92023 9.6913 10.4625 9.55577C10.5261 9.83519 10.5759 10.1035 10.6064 10.3609ZM11.6716 8.51548C11.4336 8.61784 11.1736 8.70913 10.9052 8.79491C10.7475 8.25264 10.54 7.68824 10.2827 7.11C10.5372 6.53452 10.742 5.97291 10.8969 5.4334C11.1708 5.51913 11.4308 5.61322 11.6743 5.71558C12.6537 6.13334 13.2873 6.68117 13.2873 7.11551C13.2845 7.5499 12.651 8.10048 11.6716 8.51548Z" fill="#61DAFB"/>
<path d="M7.11201 8.37933C7.81035 8.37933 8.3764 7.81328 8.3764 7.11498C8.3764 6.41668 7.81035 5.85059 7.11201 5.85059C6.41371 5.85059 5.84766 6.41668 5.84766 7.11498C5.84766 7.81328 6.41371 8.37933 7.11201 8.37933Z" fill="#61DAFB"/>
</g>
<defs>
<clipPath id="clip0_1_31792">
<rect width="14.2292" height="14.2292" fill="white"/>
</clipPath>
</defs>
</svg>
